<svg width="16" height="16" viewBox="0 0 16 16" fill="none" xmlns="http://www.w3.org/2000/svg">
<path d="M11.2978 3.80077L8.65283 7.71058L13.884 8.12527L11.2978 3.80077Z" fill="black"/>
<path d="M12.0032 3.56386L14.1191 6.99964L13.8841 3.68231L12.0032 3.56386Z" fill="black"/>
<path d="M14.6482 4.80785L14.8834 7.82904L16.0001 6.99965L14.6482 4.80785Z" fill="black"/>
<path d="M15.9412 7.94748L15.0007 8.6583L15.3534 10.6132L15.9412 7.94748Z" fill="black"/>
<path d="M11.7092 13.4566L14.4129 9.42848L14.9419 12.1534L11.7092 13.4566Z" fill="black"/>
<path d="M11.2551 14.4227L11.6077 15.3211L13.5983 13.4743L11.2551 14.4227Z" fill="black"/>
<path d="M10.5869 14.7394L8.21289 15.9357L10.9349 15.6515L10.5869 14.7394Z" fill="black"/>
<path d="M9.59026 14.4145L6.45287 16L5.7854 13.8375L9.59026 14.4145Z" fill="black"/>
<path d="M5.00824 13.7886L5.59588 15.7197L2.7981 14.06L5.00824 13.7886Z" fill="black"/>
<path d="M2.35096 9.46349L2.06323 13.406L4.65244 13.0975L2.35096 9.46349Z" fill="black"/>
<path d="M1.665 8.80328L1.414 12.3201L0.0366211 9.17344L1.665 8.80328Z" fill="black"/>
<path d="M0.697892 5.10133L0 8.43312L1.59801 8.08144L0.697892 5.10133Z" fill="black"/>
<path d="M1.08984 3.90441L2.1734 7.4335L4.70175 3.04059L1.08984 3.90441Z" fill="black"/>
<path d="M8.01271 8.8873L5.82227 13.0975L10.1842 13.7634L8.01271 8.8873Z" fill="black"/>
<path d="M13.9047 8.82657L10.8517 13.4566L8.60547 8.45193L13.9047 8.82657Z" fill="black"/>
<path d="M7.41694 8.45193L2.70654 8.68884L5.23401 12.6588L7.41694 8.45193Z" fill="black"/>
<path d="M5.4037 3.27991L2.70654 7.93899L7.46614 7.71058L5.4037 3.27991Z" fill="black"/>
<path d="M10.6561 3.44623L8.08597 7.31483L6.0249 2.92479L10.6561 3.44623Z" fill="black"/>
<path d="M10.7146 0.797134L11.5407 2.81551L13.1262 2.92478L10.7146 0.797134Z" fill="black"/>
<path d="M13.9271 2.34459L13.8839 2.6305L12.9841 1.80627L13.9271 2.34459Z" fill="black"/>
<path d="M9.59651 0.0317841L6.43384 2.23519L10.7146 2.73137L9.59651 0.0317841Z" fill="black"/>
<path d="M5.04028 0.359716L5.62439 1.93241L8.36159 0L5.04028 0.359716Z" fill="black"/>
<path d="M4.38395 0.674423L1.90845 2.95243L4.95018 2.23552L4.38395 0.674423Z" fill="black"/>
</svg>
