<svg width="685" height="353" viewBox="0 0 685 353" fill="none" xmlns="http://www.w3.org/2000/svg">
<path d="M291.544 236.912L256.494 141.439H294.829L312.902 199.49L331.158 141.439H364.929L330.062 236.912H291.544ZM419.559 239.285C389.073 239.285 366.621 221.943 366.621 190.362V188.902C366.621 157.869 390.352 138.7 419.559 138.7C446.394 138.7 469.214 154.035 469.214 188.354V197.117H402.948C403.861 208.617 410.614 214.824 420.838 214.824C430.878 214.824 434.711 210.077 435.806 204.601H469.395C466.475 226.507 449.863 239.285 419.559 239.285ZM403.131 178.314H434.528C434.164 168.091 429.234 161.884 419.559 161.884C410.797 161.884 404.591 167.544 403.131 178.314ZM485.189 236.912V100H520.968V236.912H485.189ZM581.539 239.103C559.086 239.103 546.308 228.88 546.308 204.966V165.535H535.172V141.439H546.308V121.906H582.269V141.439H600.525V165.535H582.269V201.498C582.269 208.069 585.738 210.807 591.58 210.807C594.865 210.807 597.421 210.443 600.525 209.347V236.365C596.144 237.642 589.389 239.103 581.539 239.103Z" fill="white"/>
<path d="M165.205 133.114L141.98 167.178L187.914 170.791L165.205 133.114Z" fill="white"/>
<path d="M171.398 131.05L189.978 160.984L187.914 132.082L171.398 131.05Z" fill="white"/>
<path d="M194.623 141.888L196.688 168.21L206.494 160.984L194.623 141.888Z" fill="white"/>
<path d="M205.978 169.242L197.72 175.435L200.817 192.467L205.978 169.242Z" fill="white"/>
<path d="M168.818 217.24L192.559 182.145L197.204 205.886L168.818 217.24Z" fill="white"/>
<path d="M164.831 225.657L167.927 233.484L185.406 217.394L164.831 225.657Z" fill="white"/>
<path d="M158.963 228.416L138.117 238.839L162.019 236.363L158.963 228.416Z" fill="white"/>
<path d="M150.211 225.585L122.662 239.399L116.801 220.558L150.211 225.585Z" fill="white"/>
<path d="M109.978 220.132L115.138 236.957L90.571 222.497L109.978 220.132Z" fill="white"/>
<path d="M86.643 182.45L84.1165 216.799L106.852 214.111L86.643 182.45Z" fill="white"/>
<path d="M80.6194 176.698L78.4154 207.338L66.3208 179.923L80.6194 176.698Z" fill="white"/>
<path d="M72.1281 144.445L66 173.473L80.0319 170.409L72.1281 144.445Z" fill="white"/>
<path d="M75.5703 134.017L85.0849 164.764L107.286 126.491L75.5703 134.017Z" fill="white"/>
<path d="M136.359 177.43L117.125 214.111L155.427 219.913L136.359 177.43Z" fill="white"/>
<path d="M188.096 176.901L161.288 217.24L141.564 173.637L188.096 176.901Z" fill="white"/>
<path d="M131.128 173.637L89.7666 175.701L111.96 210.289L131.128 173.637Z" fill="white"/>
<path d="M113.45 128.576L89.7666 169.168L131.56 167.178L113.45 128.576Z" fill="white"/>
<path d="M159.57 130.025L137.002 163.73L118.904 125.482L159.57 130.025Z" fill="white"/>
<path d="M160.083 106.945L167.337 124.53L181.259 125.482L160.083 106.945Z" fill="white"/>
<path d="M188.293 120.427L187.914 122.918L180.013 115.737L188.293 120.427Z" fill="white"/>
<path d="M150.265 100.277L122.494 119.474L160.083 123.797L150.265 100.277Z" fill="white"/>
<path d="M110.258 103.134L115.387 116.836L139.422 100L110.258 103.134Z" fill="white"/>
<path d="M104.495 105.876L82.7578 125.723L109.467 119.477L104.495 105.876Z" fill="white"/>
</svg>
